#N canvas 47 94 1114 642 10;
#X obj 102 199 bng 75 250 50 0 empty prev1 empty 17 7 0 10 -4034 -1
-1;
#X obj 222 198 bng 75 250 50 0 empty prev2 empty 17 7 0 10 -4034 -1
-1;
#X obj 339 198 bng 75 250 50 0 empty prev3 empty 17 7 0 10 -4034 -1
-1;
#X obj 455 198 bng 75 250 50 0 empty prev4 empty 17 7 0 10 -4034 -1
-1;
#X obj 99 36 bng 75 250 50 0 empty prog1 empty 17 7 0 10 -258113 -1
-1;
#X obj 66 371 sendOSC;
#X msg 50 -12 connect localhost 6250;
#X msg 73 297 send /control/1/play 1;
#X msg 223 297 send /control/2/play 1;
#X obj 574 197 bng 75 250 50 0 empty prev5 empty 17 7 0 10 -4034 -1
-1;
#X obj 690 197 bng 75 250 50 0 empty prev6 empty 17 7 0 10 -4034 -1
-1;
#X msg 328 325 send /control/3/play 1;
#X msg 478 325 send /control/4/play 1;
#X msg 572 295 send /control/5/play 1;
#X msg 722 295 send /control/6/play 1;
#X obj 217 36 bng 75 250 50 0 empty prog2 empty 17 7 0 10 -258113 -1
-1;
#X obj 335 36 bng 75 250 50 0 empty prog3 empty 17 7 0 10 -258113 -1
-1;
#X obj 445 34 bng 75 250 50 0 empty prog4 empty 17 7 0 10 -258113 -1
-1;
#X obj 576 32 bng 75 250 50 0 empty prog5 empty 17 7 0 10 -258113 -1
-1;
#X obj 693 29 bng 75 250 50 0 empty prog6 empty 17 7 0 10 -258113 -1
-1;
#X msg 88 124 send /control/7/play 1;
#X msg 283 127 send /control/8/play 1;
#X msg 388 155 send /control/9/play 1;
#X msg 445 119 send /control/10/play 1;
#X msg 579 144 send /control/11/play 1;
#X msg 692 112 send /control/12/play 1;
#X obj 49 -39 loadbang;
#X text 299 -38 MESA DE CORTE via CasapCGclient - ATEM TVS;
#X obj 343 417 bng 40 250 50 0 empty empty empty 17 7 0 10 -4034 -1
-1;
#X obj 415 419 bng 40 250 50 0 empty empty empty 17 7 0 10 -4034 -1
-1;
#X obj 476 421 bng 40 250 50 0 empty empty empty 17 7 0 10 -4034 -1
-1;
#X obj 543 422 bng 40 250 50 0 empty empty empty 17 7 0 10 -4034 -1
-1;
#X obj 605 423 bng 40 250 50 0 empty empty empty 17 7 0 10 -4034 -1
-1;
#X obj 671 424 bng 40 250 50 0 empty empty empty 17 7 0 10 -4034 -1
-1;
#X obj 772 424 bng 40 250 50 0 empty empty empty 17 7 0 10 -4034 -1
-1;
#X text 356 395 1;
#X text 506 365 AUDIO ON e OFF;
#X obj 343 486 bng 40 250 50 0 empty empty empty 17 7 0 10 -258113
-1 -1;
#X obj 412 486 bng 40 250 50 0 empty empty empty 17 7 0 10 -258113
-1 -1;
#X obj 477 487 bng 40 250 50 0 empty empty empty 17 7 0 10 -258113
-1 -1;
#X obj 546 487 bng 40 250 50 0 empty empty empty 17 7 0 10 -258113
-1 -1;
#X obj 615 486 bng 40 250 50 0 empty empty empty 17 7 0 10 -258113
-1 -1;
#X obj 680 487 bng 40 250 50 0 empty empty empty 17 7 0 10 -258113
-1 -1;
#X obj 772 489 bng 40 250 50 0 empty empty empty 17 7 0 10 -258113
-1 -1;
#X text 777 385 ext;
#X text 419 395 2;
#X text 478 397 3;
#X text 548 397 4;
#X text 608 396 5;
#X text 676 396 6;
#X msg 344 463 13;
#X msg 419 463 15;
#X msg 481 468 17;
#X msg 539 467 19;
#X msg 608 466 21;
#X msg 673 469 23;
#X msg 771 467 25;
#X msg 342 533 14;
#X msg 413 531 16;
#X msg 478 532 18;
#X msg 544 534 20;
#X msg 617 533 22;
#X msg 686 534 24;
#X msg 775 538 26;
#X msg 153 368 send /control/\$1/play 1;
#X obj 827 197 bng 70 250 50 0 empty autop empty 17 7 0 10 -4032 -1
-1;
#X obj 827 66 bng 70 250 50 0 empty cut empty 17 7 0 10 -257985 -1
-1;
#X msg 817 270 26;
#X msg 828 148 27;
#X obj 957 211 bng 65 250 50 0 empty empty empty 17 7 0 10 -4032 -1
-1;
#X obj 1042 210 bng 65 250 50 0 empty empty empty 17 7 0 10 -4032 -1
-1;
#X obj 948 32 bng 65 250 50 0 empty empty empty 17 7 0 10 -258113 -1
-1;
#X obj 1033 31 bng 65 250 50 0 empty empty empty 17 7 0 10 -258113
-1 -1;
#X obj 949 134 bng 65 250 50 0 empty empty empty 17 7 0 10 -260097
-1 -1;
#X obj 1036 133 bng 65 250 50 0 empty empty empty 17 7 0 10 -260097
-1 -1;
#X text 965 -5 DSK1;
#X text 1050 -4 DSK2;
#X text 959 56 ON AIR;
#X text 1044 55 ON AIR;
#X text 974 232 AUTO;
#X text 1060 233 AUTO;
#X msg 934 197 28;
#X msg 1023 192 29;
#X msg 950 107 30;
#X msg 1031 105 31;
#X msg 963 286 32;
#X msg 1051 285 33;
#X text 847 225 AUTO;
#X text 852 92 CUT;
#X text 845 60 comment;
#X text 964 157 OFF AIR;
#X text 1045 156 OFF AIR;
#N canvas 375 293 823 469 keys 0;
#X obj 80 49 key;
#X obj 19 151 s prog1;
#X obj 126 65 spigot;
#X obj 157 45 tgl 15 0 empty empty empty 17 7 0 10 -262144 -1 -1 1
1;
#X obj 29 161 s prog2;
#X obj 39 171 s prog3;
#X obj 49 181 s prog4;
#X obj 59 191 s prog5;
#X obj 69 201 s prog6;
#N canvas 294 230 537 498 mostradorPROG 0;
#X obj 146 22 r mtprog1;
#X obj 225 22 r mtprog2;
#X obj 299 23 r mtprog3;
#X obj 137 261 r mtprog4;
#X obj 217 259 r mtprog5;
#X obj 288 258 r mtprog6;
#X obj 156 338 pack;
#X msg 127 376 pos \$1 \$2;
#X obj 69 316 t b b;
#X msg 168 301 0;
#X obj 136 99 pack;
#X msg 107 137 pos \$1 \$2;
#X msg 116 61 100;
#X obj 49 77 t b b;
#X msg 148 62 0;
#X obj 282 105 pack;
#X msg 253 143 pos \$1 \$2;
#X obj 195 83 t b b;
#X msg 294 68 0;
#X msg 262 67 215;
#X obj 424 96 pack;
#X msg 395 134 pos \$1 \$2;
#X obj 337 74 t b b;
#X msg 436 59 0;
#X msg 404 58 335;
#X msg 136 300 445;
#X obj 292 329 pack;
#X msg 263 367 pos \$1 \$2;
#X obj 205 307 t b b;
#X msg 304 292 0;
#X msg 272 291 577;
#X obj 428 320 pack;
#X msg 399 358 pos \$1 \$2;
#X obj 341 298 t b b;
#X msg 408 282 693;
#X msg 440 283 -5;
#X obj 125 177 s progmt_ON;
#X obj 271 184 s progmt_ON;
#X obj 413 175 s progmt_ON;
#X obj 417 399 s progmt_ON;
#X obj 281 407 s progmt_ON;
#X obj 145 417 s progmt_ON;
#X msg 138 214 1;
#X msg 266 202 2;
#X msg 405 210 3;
#X msg 144 448 4;
#X msg 280 448 5;
#X msg 412 441 6;
#X obj 28 224 s wprog;
#X connect 0 0 13 0;
#X connect 0 0 42 0;
#X connect 1 0 17 0;
#X connect 1 0 43 0;
#X connect 2 0 22 0;
#X connect 2 0 44 0;
#X connect 3 0 8 0;
#X connect 3 0 45 0;
#X connect 4 0 28 0;
#X connect 4 0 46 0;
#X connect 5 0 33 0;
#X connect 5 0 47 0;
#X connect 6 0 7 0;
#X connect 7 0 41 0;
#X connect 8 0 25 0;
#X connect 8 1 9 0;
#X connect 9 0 6 1;
#X connect 10 0 11 0;
#X connect 11 0 36 0;
#X connect 12 0 10 0;
#X connect 13 0 12 0;
#X connect 13 1 14 0;
#X connect 14 0 10 1;
#X connect 15 0 16 0;
#X connect 16 0 37 0;
#X connect 17 0 19 0;
#X connect 17 1 18 0;
#X connect 18 0 15 1;
#X connect 19 0 15 0;
#X connect 20 0 21 0;
#X connect 21 0 38 0;
#X connect 22 0 24 0;
#X connect 22 1 23 0;
#X connect 23 0 20 1;
#X connect 24 0 20 0;
#X connect 25 0 6 0;
#X connect 26 0 27 0;
#X connect 27 0 40 0;
#X connect 28 0 30 0;
#X connect 28 1 29 0;
#X connect 29 0 26 1;
#X connect 30 0 26 0;
#X connect 31 0 32 0;
#X connect 32 0 39 0;
#X connect 33 0 34 0;
#X connect 33 1 35 0;
#X connect 34 0 31 0;
#X connect 35 0 31 1;
#X connect 42 0 48 0;
#X connect 43 0 48 0;
#X connect 44 0 48 0;
#X connect 45 0 48 0;
#X connect 46 0 48 0;
#X connect 47 0 48 0;
#X restore 364 38 pd mostradorPROG;
#N canvas 741 168 537 498 mostradorPREV 0;
#X obj 156 338 pack;
#X obj 145 417 s prevmt_ON;
#X msg 127 376 pos \$1 \$2;
#X obj 69 316 t b b;
#X obj 136 99 pack;
#X obj 125 178 s prevmt_ON;
#X msg 107 137 pos \$1 \$2;
#X obj 49 77 t b b;
#X obj 282 105 pack;
#X obj 271 184 s prevmt_ON;
#X msg 253 143 pos \$1 \$2;
#X obj 195 83 t b b;
#X obj 424 96 pack;
#X obj 413 175 s prevmt_ON;
#X msg 395 134 pos \$1 \$2;
#X obj 337 74 t b b;
#X obj 292 329 pack;
#X obj 281 408 s prevmt_ON;
#X msg 263 367 pos \$1 \$2;
#X obj 205 307 t b b;
#X obj 428 320 pack;
#X obj 417 399 s prevmt_ON;
#X msg 399 358 pos \$1 \$2;
#X obj 341 298 t b b;
#X msg 408 282 693;
#X obj 146 22 r mtprev1;
#X obj 225 22 r mtprev2;
#X obj 299 23 r mtprev3;
#X obj 137 261 r mtprev4;
#X obj 217 259 r mtprev5;
#X obj 288 258 r mtprev6;
#X msg 150 63 280;
#X msg 116 61 103;
#X msg 294 68 280;
#X msg 262 67 225;
#X msg 436 59 280;
#X msg 404 58 340;
#X msg 168 301 280;
#X msg 136 300 455;
#X msg 304 292 280;
#X msg 272 291 575;
#X msg 440 283 280;
#X msg 123 217 1;
#X msg 252 222 2;
#X msg 407 211 3;
#X msg 137 450 4;
#X msg 247 445 5;
#X msg 406 436 6;
#X obj 39 245 s wprev;
#X connect 0 0 2 0;
#X connect 2 0 1 0;
#X connect 3 0 38 0;
#X connect 3 1 37 0;
#X connect 4 0 6 0;
#X connect 6 0 5 0;
#X connect 7 0 32 0;
#X connect 7 1 31 0;
#X connect 8 0 10 0;
#X connect 10 0 9 0;
#X connect 11 0 34 0;
#X connect 11 1 33 0;
#X connect 12 0 14 0;
#X connect 14 0 13 0;
#X connect 15 0 36 0;
#X connect 15 1 35 0;
#X connect 16 0 18 0;
#X connect 18 0 17 0;
#X connect 19 0 40 0;
#X connect 19 1 39 0;
#X connect 20 0 22 0;
#X connect 22 0 21 0;
#X connect 23 0 24 0;
#X connect 23 1 41 0;
#X connect 24 0 20 0;
#X connect 25 0 7 0;
#X connect 25 0 42 0;
#X connect 26 0 11 0;
#X connect 26 0 43 0;
#X connect 27 0 15 0;
#X connect 27 0 44 0;
#X connect 28 0 3 0;
#X connect 28 0 45 0;
#X connect 29 0 19 0;
#X connect 29 0 46 0;
#X connect 30 0 23 0;
#X connect 30 0 47 0;
#X connect 31 0 4 1;
#X connect 32 0 4 0;
#X connect 33 0 8 1;
#X connect 34 0 8 0;
#X connect 35 0 12 1;
#X connect 36 0 12 0;
#X connect 37 0 0 1;
#X connect 38 0 0 0;
#X connect 39 0 16 1;
#X connect 40 0 16 0;
#X connect 41 0 20 1;
#X connect 42 0 48 0;
#X connect 43 0 48 0;
#X connect 44 0 48 0;
#X connect 45 0 48 0;
#X connect 46 0 48 0;
#X connect 47 0 48 0;
#X restore 363 79 pd mostradorPREV;
#X obj 36 103 sel 105 111 112 106 107 108;
#X obj 123 -166 sel 113 119 101 97 115 100 32 10;
#X obj 122 -124 s prev1;
#X obj 131 -114 s prev2;
#X obj 141 -104 s prev3;
#X obj 151 -94 s prev4;
#X obj 161 -84 s prev5;
#X obj 171 -74 s prev6;
#X obj 259 -39 s cut;
#X obj 300 -51 s autop;
#N canvas 263 148 750 563 mostradorCUTAUTO 0;
#X obj -281 89 f;
#X obj -299 153 s mtprog1;
#X obj -282 189 s mtprog2;
#X obj -257 223 s mtprog3;
#X obj -243 274 s mtprog4;
#X obj -238 310 s mtprog5;
#X obj -214 346 s mtprog6;
#X obj -285 114 sel 1 2 3 4 5 6;
#X obj 36 91 f;
#X obj 32 116 sel 1 2 3 4 5 6;
#X obj -264 42 r wprev;
#X obj 49 46 r wprog;
#X obj -140 43 r cutmt;
#X obj -66 44 r autopmt;
#X obj -33 242 s mtprev1;
#X obj -7 296 s mtprev2;
#X obj 12 354 s mtprev3;
#X obj 20 427 s mtprev4;
#X obj 39 483 s mtprev5;
#X obj 112 451 s mtprev6;
#X obj 119 343 delay 500;
#X obj -115 81 t b b;
#X obj -30 208 delay 50;
#X obj -17 270 delay 50;
#X obj 3 323 delay 50;
#X obj 16 387 delay 50;
#X obj 31 457 delay 50;
#X connect 0 0 7 0;
#X connect 7 0 1 0;
#X connect 7 1 2 0;
#X connect 7 2 3 0;
#X connect 7 3 4 0;
#X connect 7 4 5 0;
#X connect 7 5 6 0;
#X connect 8 0 9 0;
#X connect 9 0 22 0;
#X connect 9 1 23 0;
#X connect 9 2 24 0;
#X connect 9 3 25 0;
#X connect 9 4 26 0;
#X connect 9 5 20 0;
#X connect 10 0 0 1;
#X connect 11 0 8 1;
#X connect 12 0 21 0;
#X connect 13 0 21 0;
#X connect 20 0 19 0;
#X connect 21 0 0 0;
#X connect 21 1 8 0;
#X connect 22 0 14 0;
#X connect 23 0 15 0;
#X connect 24 0 16 0;
#X connect 25 0 17 0;
#X connect 26 0 18 0;
#X restore 364 8 pd mostradorCUTAUTO;
#X connect 0 0 2 0;
#X connect 2 0 11 0;
#X connect 2 0 12 0;
#X connect 3 0 2 1;
#X connect 11 0 1 0;
#X connect 11 1 4 0;
#X connect 11 2 5 0;
#X connect 11 3 6 0;
#X connect 11 4 7 0;
#X connect 11 5 8 0;
#X connect 12 0 13 0;
#X connect 12 1 14 0;
#X connect 12 2 15 0;
#X connect 12 3 16 0;
#X connect 12 4 17 0;
#X connect 12 5 18 0;
#X connect 12 6 19 0;
#X connect 12 7 20 0;
#X restore 961 352 pd keys;
#X obj 335 0 cnv 15 73 30 empty progmt_ON ON 18 12 0 14 -258113 -66577
0;
#X obj 98 157 s mtprog1;
#X obj 215 155 s mtprog2;
#X obj 319 155 s mtprog3;
#X obj 448 175 s mtprog4;
#X obj 596 120 s mtprog5;
#X obj 733 147 s mtprog6;
#X obj 89 331 s mtprev1;
#X obj 218 329 s mtprev2;
#X obj 385 300 s mtprev3;
#X obj 482 293 s mtprev4;
#X obj 635 323 s mtprev5;
#X obj 733 337 s mtprev6;
#X obj 103 280 cnv 15 73 30 empty prevmt_ON ON 18 12 0 14 -4034 -66577
0;
#X obj 862 148 s cutmt;
#X obj 863 271 s autopmt;
#X connect 0 0 7 0;
#X connect 0 0 100 0;
#X connect 1 0 8 0;
#X connect 1 0 101 0;
#X connect 2 0 11 0;
#X connect 2 0 102 0;
#X connect 3 0 12 0;
#X connect 3 0 103 0;
#X connect 4 0 20 0;
#X connect 4 0 94 0;
#X connect 6 0 5 0;
#X connect 7 0 5 0;
#X connect 8 0 5 0;
#X connect 9 0 13 0;
#X connect 9 0 104 0;
#X connect 10 0 14 0;
#X connect 10 0 105 0;
#X connect 11 0 5 0;
#X connect 12 0 5 0;
#X connect 13 0 5 0;
#X connect 14 0 5 0;
#X connect 15 0 21 0;
#X connect 15 0 95 0;
#X connect 16 0 22 0;
#X connect 16 0 96 0;
#X connect 17 0 23 0;
#X connect 17 0 97 0;
#X connect 18 0 24 0;
#X connect 18 0 98 0;
#X connect 19 0 25 0;
#X connect 19 0 99 0;
#X connect 20 0 5 0;
#X connect 21 0 5 0;
#X connect 22 0 5 0;
#X connect 23 0 5 0;
#X connect 24 0 5 0;
#X connect 25 0 5 0;
#X connect 26 0 6 0;
#X connect 28 0 50 0;
#X connect 29 0 51 0;
#X connect 30 0 52 0;
#X connect 31 0 53 0;
#X connect 32 0 54 0;
#X connect 33 0 55 0;
#X connect 34 0 56 0;
#X connect 37 0 57 0;
#X connect 38 0 58 0;
#X connect 39 0 59 0;
#X connect 40 0 60 0;
#X connect 41 0 61 0;
#X connect 42 0 62 0;
#X connect 43 0 63 0;
#X connect 50 0 64 0;
#X connect 51 0 64 0;
#X connect 52 0 64 0;
#X connect 53 0 64 0;
#X connect 54 0 64 0;
#X connect 55 0 64 0;
#X connect 56 0 64 0;
#X connect 57 0 64 0;
#X connect 58 0 64 0;
#X connect 59 0 64 0;
#X connect 60 0 64 0;
#X connect 61 0 64 0;
#X connect 62 0 64 0;
#X connect 63 0 64 0;
#X connect 64 0 5 0;
#X connect 65 0 67 0;
#X connect 65 0 108 0;
#X connect 66 0 68 0;
#X connect 66 0 107 0;
#X connect 67 0 64 0;
#X connect 68 0 64 0;
#X connect 69 0 85 0;
#X connect 70 0 86 0;
#X connect 71 0 83 0;
#X connect 72 0 84 0;
#X connect 73 0 81 0;
#X connect 74 0 82 0;
#X connect 81 0 64 0;
#X connect 82 0 64 0;
#X connect 83 0 64 0;
#X connect 84 0 64 0;
#X connect 85 0 64 0;
#X connect 86 0 64 0;
