#N canvas 1 89 1009 608 10;
#N canvas 0 88 1366 680 mesa-de-corte 1;
#X obj 73 883 bng 75 250 50 0 empty prev1 empty 17 7 0 10 -4034 -1
-1;
#X obj 193 882 bng 75 250 50 0 empty prev2 empty 17 7 0 10 -4034 -1
-1;
#X obj 310 882 bng 75 250 50 0 empty prev3 empty 17 7 0 10 -4034 -1
-1;
#X obj 426 882 bng 75 250 50 0 empty prev4 empty 17 7 0 10 -4034 -1
-1;
#X obj 70 720 bng 75 250 50 0 empty empty empty 17 7 0 10 -258113 -1
-1;
#X obj 37 1055 sendOSC;
#X msg 21 672 connect localhost 6250;
#X msg 44 981 send /control/1/play 1;
#X msg 194 981 send /control/2/play 1;
#X obj 545 881 bng 75 250 50 0 empty prev5 empty 17 7 0 10 -4034 -1
-1;
#X obj 661 881 bng 75 250 50 0 empty prev6 empty 17 7 0 10 -4034 -1
-1;
#X msg 299 1009 send /control/3/play 1;
#X msg 449 1009 send /control/4/play 1;
#X msg 543 979 send /control/5/play 1;
#X msg 693 979 send /control/6/play 1;
#X obj 188 720 bng 75 250 50 0 empty empty empty 17 7 0 10 -258113
-1 -1;
#X obj 306 720 bng 75 250 50 0 empty empty empty 17 7 0 10 -258113
-1 -1;
#X obj 416 718 bng 75 250 50 0 empty empty empty 17 7 0 10 -258113
-1 -1;
#X obj 547 716 bng 75 250 50 0 empty empty empty 17 7 0 10 -258113
-1 -1;
#X obj 664 713 bng 75 250 50 0 empty empty empty 17 7 0 10 -258113
-1 -1;
#X msg 59 808 send /control/7/play 1;
#X msg 254 811 send /control/8/play 1;
#X msg 359 839 send /control/9/play 1;
#X msg 416 803 send /control/10/play 1;
#X msg 550 828 send /control/11/play 1;
#X msg 663 796 send /control/12/play 1;
#X obj 20 645 loadbang;
#X text 270 646 MESA DE CORTE via CasapCGclient - ATEM TVS;
#X obj 314 1101 bng 40 250 50 0 empty empty empty 17 7 0 10 -4034 -1
-1;
#X obj 386 1103 bng 40 250 50 0 empty empty empty 17 7 0 10 -4034 -1
-1;
#X obj 447 1105 bng 40 250 50 0 empty empty empty 17 7 0 10 -4034 -1
-1;
#X obj 514 1106 bng 40 250 50 0 empty empty empty 17 7 0 10 -4034 -1
-1;
#X obj 576 1107 bng 40 250 50 0 empty empty empty 17 7 0 10 -4034 -1
-1;
#X obj 642 1108 bng 40 250 50 0 empty empty empty 17 7 0 10 -4034 -1
-1;
#X obj 743 1108 bng 40 250 50 0 empty empty empty 17 7 0 10 -4034 -1
-1;
#X text 327 1079 1;
#X text 477 1049 AUDIO ON e OFF;
#X obj 314 1170 bng 40 250 50 0 empty empty empty 17 7 0 10 -258113
-1 -1;
#X obj 383 1170 bng 40 250 50 0 empty empty empty 17 7 0 10 -258113
-1 -1;
#X obj 448 1171 bng 40 250 50 0 empty empty empty 17 7 0 10 -258113
-1 -1;
#X obj 517 1171 bng 40 250 50 0 empty empty empty 17 7 0 10 -258113
-1 -1;
#X obj 586 1170 bng 40 250 50 0 empty empty empty 17 7 0 10 -258113
-1 -1;
#X obj 651 1171 bng 40 250 50 0 empty empty empty 17 7 0 10 -258113
-1 -1;
#X obj 743 1173 bng 40 250 50 0 empty empty empty 17 7 0 10 -258113
-1 -1;
#X text 748 1069 ext;
#X text 390 1079 2;
#X text 449 1081 3;
#X text 519 1081 4;
#X text 579 1080 5;
#X text 647 1080 6;
#X msg 315 1147 13;
#X msg 390 1147 15;
#X msg 452 1152 17;
#X msg 510 1151 19;
#X msg 579 1150 21;
#X msg 644 1153 23;
#X msg 742 1151 25;
#X msg 313 1217 14;
#X msg 384 1215 16;
#X msg 449 1216 18;
#X msg 515 1218 20;
#X msg 588 1217 22;
#X msg 657 1218 24;
#X msg 746 1222 26;
#X msg 124 1052 send /control/\$1/play 1;
#X obj 798 881 bng 70 250 50 0 empty empty empty 17 7 0 10 -4032 -1
-1;
#X obj 798 750 bng 70 250 50 0 empty empty empty 17 7 0 10 -257985
-1 -1;
#X msg 788 954 26;
#X msg 799 832 27;
#X obj 928 895 bng 65 250 50 0 empty empty empty 17 7 0 10 -4032 -1
-1;
#X obj 1013 894 bng 65 250 50 0 empty empty empty 17 7 0 10 -4032 -1
-1;
#X obj 919 716 bng 65 250 50 0 empty empty empty 17 7 0 10 -258113
-1 -1;
#X obj 1004 715 bng 65 250 50 0 empty empty empty 17 7 0 10 -258113
-1 -1;
#X obj 920 818 bng 65 250 50 0 empty empty empty 17 7 0 10 -260097
-1 -1;
#X obj 1007 817 bng 65 250 50 0 empty empty empty 17 7 0 10 -260097
-1 -1;
#X text 936 679 DSK1;
#X text 1021 680 DSK2;
#X text 930 740 ON AIR;
#X text 1015 739 ON AIR;
#X text 945 916 AUTO;
#X text 1031 917 AUTO;
#X msg 905 881 28;
#X msg 994 876 29;
#X msg 921 791 30;
#X msg 1002 789 31;
#X msg 934 970 32;
#X msg 1022 969 33;
#X text 818 909 AUTO;
#X text 823 776 CUT;
#X text 816 744 comment;
#X text 935 841 OFF AIR;
#X text 1016 840 OFF AIR;
#N canvas 540 296 823 469 keys 0;
#X obj 80 49 key;
#X obj 19 151 s prog1;
#X obj 126 65 spigot;
#X obj 157 45 tgl 15 0 empty keysHab empty 17 7 0 10 -262144 -1 -1
0 1;
#X obj 29 161 s prog2;
#X obj 39 171 s prog3;
#X obj 49 181 s prog4;
#X obj 59 191 s prog5;
#X obj 69 201 s prog6;
#N canvas 716 170 537 498 mostradorPROG 0;
#X obj 146 22 r mtprog1;
#X obj 225 22 r mtprog2;
#X obj 299 23 r mtprog3;
#X obj 137 261 r mtprog4;
#X obj 217 259 r mtprog5;
#X obj 288 258 r mtprog6;
#X obj 156 338 pack;
#X msg 127 376 pos \$1 \$2;
#X obj 69 316 t b b;
#X obj 136 99 pack;
#X msg 107 137 pos \$1 \$2;
#X obj 49 77 t b b;
#X obj 282 105 pack;
#X msg 253 143 pos \$1 \$2;
#X obj 195 83 t b b;
#X obj 424 96 pack;
#X msg 395 134 pos \$1 \$2;
#X obj 337 74 t b b;
#X obj 292 329 pack;
#X msg 263 367 pos \$1 \$2;
#X obj 205 307 t b b;
#X obj 428 320 pack;
#X msg 399 358 pos \$1 \$2;
#X obj 341 298 t b b;
#X obj 125 177 s progmt_ON;
#X obj 271 184 s progmt_ON;
#X obj 413 175 s progmt_ON;
#X obj 417 399 s progmt_ON;
#X obj 281 407 s progmt_ON;
#X obj 145 417 s progmt_ON;
#X msg 138 214 1;
#X msg 266 202 2;
#X msg 405 210 3;
#X msg 144 448 4;
#X msg 280 448 5;
#X msg 412 441 6;
#X obj 28 224 s wprog;
#X obj 15 147 bng 15 250 50 0 empty empty empty 17 7 0 10 -262144 -1
-1;
#X msg 148 63 38;
#X msg 294 68 38;
#X msg 436 59 38;
#X msg 167 299 240;
#X msg 304 292 240;
#X msg 439 283 240;
#X msg 116 60 430;
#X msg 262 67 516;
#X msg 404 58 602;
#X msg 136 300 430;
#X msg 272 291 516;
#X msg 408 282 602;
#X connect 0 0 11 0;
#X connect 0 0 30 0;
#X connect 1 0 14 0;
#X connect 1 0 31 0;
#X connect 2 0 17 0;
#X connect 2 0 32 0;
#X connect 3 0 8 0;
#X connect 3 0 33 0;
#X connect 4 0 20 0;
#X connect 4 0 34 0;
#X connect 5 0 23 0;
#X connect 5 0 35 0;
#X connect 6 0 7 0;
#X connect 7 0 29 0;
#X connect 8 0 47 0;
#X connect 8 1 41 0;
#X connect 9 0 10 0;
#X connect 10 0 24 0;
#X connect 11 0 44 0;
#X connect 11 1 38 0;
#X connect 12 0 13 0;
#X connect 13 0 25 0;
#X connect 14 0 45 0;
#X connect 14 1 39 0;
#X connect 15 0 16 0;
#X connect 16 0 26 0;
#X connect 17 0 46 0;
#X connect 17 1 40 0;
#X connect 18 0 19 0;
#X connect 19 0 28 0;
#X connect 20 0 48 0;
#X connect 20 1 42 0;
#X connect 21 0 22 0;
#X connect 22 0 27 0;
#X connect 23 0 49 0;
#X connect 23 1 43 0;
#X connect 30 0 36 0;
#X connect 31 0 36 0;
#X connect 32 0 36 0;
#X connect 33 0 36 0;
#X connect 34 0 36 0;
#X connect 35 0 36 0;
#X connect 37 0 11 0;
#X connect 38 0 9 1;
#X connect 39 0 12 1;
#X connect 40 0 15 1;
#X connect 41 0 6 1;
#X connect 42 0 18 1;
#X connect 43 0 21 1;
#X connect 44 0 9 0;
#X connect 45 0 12 0;
#X connect 46 0 15 0;
#X connect 47 0 6 0;
#X connect 48 0 18 0;
#X connect 49 0 21 0;
#X restore 364 38 pd mostradorPROG;
#N canvas 160 200 537 498 mostradorPREV 0;
#X obj 156 338 pack;
#X obj 145 417 s prevmt_ON;
#X msg 127 376 pos \$1 \$2;
#X obj 69 316 t b b;
#X obj 136 99 pack;
#X obj 125 178 s prevmt_ON;
#X msg 107 137 pos \$1 \$2;
#X obj 49 77 t b b;
#X obj 282 105 pack;
#X obj 271 184 s prevmt_ON;
#X msg 253 143 pos \$1 \$2;
#X obj 195 83 t b b;
#X obj 424 96 pack;
#X obj 413 175 s prevmt_ON;
#X msg 395 134 pos \$1 \$2;
#X obj 337 74 t b b;
#X obj 292 329 pack;
#X obj 281 408 s prevmt_ON;
#X msg 263 367 pos \$1 \$2;
#X obj 205 307 t b b;
#X obj 428 320 pack;
#X obj 417 399 s prevmt_ON;
#X msg 399 358 pos \$1 \$2;
#X obj 341 298 t b b;
#X obj 146 22 r mtprev1;
#X obj 225 22 r mtprev2;
#X obj 299 23 r mtprev3;
#X obj 137 261 r mtprev4;
#X obj 217 259 r mtprev5;
#X obj 288 258 r mtprev6;
#X msg 123 217 1;
#X msg 252 222 2;
#X msg 407 211 3;
#X msg 137 450 4;
#X msg 247 445 5;
#X msg 406 436 6;
#X obj 39 245 s wprev;
#X msg 150 63 38;
#X msg 294 68 38;
#X msg 436 59 38;
#X msg 168 301 240;
#X msg 304 292 240;
#X msg 440 283 240;
#X obj 34 138 bng 15 250 50 0 empty empty empty 17 7 0 10 -262144 -1
-1;
#X msg 116 61 37;
#X msg 262 67 123;
#X msg 404 58 209;
#X msg 136 300 37;
#X msg 272 291 123;
#X msg 408 282 209;
#X connect 0 0 2 0;
#X connect 2 0 1 0;
#X connect 3 0 47 0;
#X connect 3 1 40 0;
#X connect 4 0 6 0;
#X connect 6 0 5 0;
#X connect 7 0 44 0;
#X connect 7 1 37 0;
#X connect 8 0 10 0;
#X connect 10 0 9 0;
#X connect 11 0 45 0;
#X connect 11 1 38 0;
#X connect 12 0 14 0;
#X connect 14 0 13 0;
#X connect 15 0 46 0;
#X connect 15 1 39 0;
#X connect 16 0 18 0;
#X connect 18 0 17 0;
#X connect 19 0 48 0;
#X connect 19 1 41 0;
#X connect 20 0 22 0;
#X connect 22 0 21 0;
#X connect 23 0 49 0;
#X connect 23 1 42 0;
#X connect 24 0 7 0;
#X connect 24 0 30 0;
#X connect 25 0 11 0;
#X connect 25 0 31 0;
#X connect 26 0 15 0;
#X connect 26 0 32 0;
#X connect 27 0 3 0;
#X connect 27 0 33 0;
#X connect 28 0 19 0;
#X connect 28 0 34 0;
#X connect 29 0 23 0;
#X connect 29 0 35 0;
#X connect 30 0 36 0;
#X connect 31 0 36 0;
#X connect 32 0 36 0;
#X connect 33 0 36 0;
#X connect 34 0 36 0;
#X connect 35 0 36 0;
#X connect 37 0 4 1;
#X connect 38 0 8 1;
#X connect 39 0 12 1;
#X connect 40 0 0 1;
#X connect 41 0 16 1;
#X connect 42 0 20 1;
#X connect 43 0 7 0;
#X connect 44 0 4 0;
#X connect 45 0 8 0;
#X connect 46 0 12 0;
#X connect 47 0 0 0;
#X connect 48 0 16 0;
#X connect 49 0 20 0;
#X restore 363 79 pd mostradorPREV;
#X obj 36 103 sel 105 111 112 106 107 108;
#X obj 123 -166 sel 113 119 101 97 115 100 32 10;
#X obj 122 -124 s prev1;
#X obj 131 -114 s prev2;
#X obj 141 -104 s prev3;
#X obj 151 -94 s prev4;
#X obj 161 -84 s prev5;
#X obj 171 -74 s prev6;
#X obj 259 -39 s cut;
#X obj 300 -51 s autop;
#N canvas 261 156 750 563 mostradorCUTAUTO 0;
#X obj -281 89 f;
#X obj -299 153 s mtprog1;
#X obj -282 189 s mtprog2;
#X obj -257 223 s mtprog3;
#X obj -243 274 s mtprog4;
#X obj -238 310 s mtprog5;
#X obj -214 346 s mtprog6;
#X obj -285 114 sel 1 2 3 4 5 6;
#X obj 36 91 f;
#X obj 32 116 sel 1 2 3 4 5 6;
#X obj -264 42 r wprev;
#X obj 49 46 r wprog;
#X obj -140 43 r cutmt;
#X obj -66 44 r autopmt;
#X obj -33 242 s mtprev1;
#X obj -7 296 s mtprev2;
#X obj 12 354 s mtprev3;
#X obj 20 427 s mtprev4;
#X obj 39 483 s mtprev5;
#X obj 112 451 s mtprev6;
#X obj 119 343 delay 500;
#X obj -115 81 t b b;
#X obj -30 208 delay 50;
#X obj -17 270 delay 50;
#X obj 3 323 delay 50;
#X obj 16 387 delay 50;
#X obj 31 457 delay 50;
#X connect 0 0 7 0;
#X connect 7 0 1 0;
#X connect 7 1 2 0;
#X connect 7 2 3 0;
#X connect 7 3 4 0;
#X connect 7 4 5 0;
#X connect 7 5 6 0;
#X connect 8 0 9 0;
#X connect 9 0 22 0;
#X connect 9 1 23 0;
#X connect 9 2 24 0;
#X connect 9 3 25 0;
#X connect 9 4 26 0;
#X connect 9 5 20 0;
#X connect 10 0 0 1;
#X connect 11 0 8 1;
#X connect 12 0 21 0;
#X connect 13 0 21 0;
#X connect 20 0 19 0;
#X connect 21 0 0 0;
#X connect 21 1 8 0;
#X connect 22 0 14 0;
#X connect 23 0 15 0;
#X connect 24 0 16 0;
#X connect 25 0 17 0;
#X connect 26 0 18 0;
#X restore 364 8 pd mostradorCUTAUTO;
#X connect 0 0 2 0;
#X connect 2 0 11 0;
#X connect 2 0 12 0;
#X connect 3 0 2 1;
#X connect 11 0 1 0;
#X connect 11 1 4 0;
#X connect 11 2 5 0;
#X connect 11 3 6 0;
#X connect 11 4 7 0;
#X connect 11 5 8 0;
#X connect 12 0 13 0;
#X connect 12 1 14 0;
#X connect 12 2 15 0;
#X connect 12 3 16 0;
#X connect 12 4 17 0;
#X connect 12 5 18 0;
#X connect 12 6 19 0;
#X connect 12 7 20 0;
#X restore 932 1036 pd keys;
#X obj 602 240 cnv 15 75 30 empty progmt_ON ON 18 12 0 14 -258113 -66577
0;
#X obj 69 841 s mtprog1;
#X obj 186 839 s mtprog2;
#X obj 290 839 s mtprog3;
#X obj 419 859 s mtprog4;
#X obj 567 804 s mtprog5;
#X obj 704 831 s mtprog6;
#X obj 60 1015 s mtprev1;
#X obj 189 1013 s mtprev2;
#X obj 356 984 s mtprev3;
#X obj 453 977 s mtprev4;
#X obj 606 1007 s mtprev5;
#X obj 704 1021 s mtprev6;
#X obj 209 38 cnv 15 75 30 empty prevmt_ON ON 18 12 0 14 -4034 -66577
0;
#X obj 833 832 s cutmt;
#X obj 834 955 s autopmt;
#X obj 430 73 bng 75 250 50 0 empty prog1 empty 17 7 0 10 -258113 -1
-1;
#X obj 516 73 bng 75 250 50 0 empty prog2 empty 17 7 0 10 -258113 -1
-1;
#X obj 603 73 bng 75 250 50 0 empty prog3 empty 17 7 0 10 -258113 -1
-1;
#X obj 429 159 bng 75 250 50 0 empty prog4 empty 17 7 0 10 -258113
-1 -1;
#X obj 516 159 bng 75 250 50 0 empty prog5 empty 17 7 0 10 -258113
-1 -1;
#X obj 603 159 bng 75 250 50 0 empty prog6 empty 17 7 0 10 -258113
-1 -1;
#X obj 37 73 bng 75 250 50 0 empty prev1 empty 17 7 0 10 -4034 -1 -1
;
#X obj 125 73 bng 75 250 50 0 empty prev2 empty 17 7 0 10 -4034 -1
-1;
#X obj 212 72 bng 75 250 50 0 empty prev3 empty 17 7 0 10 -4034 -1
-1;
#X obj 37 158 bng 75 250 50 0 empty prev4 empty 17 7 0 10 -4034 -1
-1;
#X obj 125 158 bng 75 250 50 0 empty prev5 empty 17 7 0 10 -4034 -1
-1;
#X obj 213 158 bng 75 250 50 0 empty prev6 empty 17 7 0 10 -4034 -1
-1;
#X obj 808 820 s mtprog4;
#X obj 321 72 bng 75 250 50 0 empty cut empty 17 7 0 10 -257985 -1
-1;
#X text 346 98 CUT;
#X obj 321 159 bng 75 250 50 0 empty autop empty 17 7 0 10 -4032 -1
-1;
#X text 341 187 AUTO;
#X obj 780 242 bng 75 250 50 0 empty empty AUTO 18 35 0 15 -4032 -1
-1;
#X obj 780 150 tgl 75 0 empty Rdsk1Air ON_AIR 10 37 0 15 -262144 -262144
-1 0 1;
#X obj 874 150 tgl 75 0 empty Rdsk2Air ON_AIR 10 37 0 15 -258699 -258699
-1 1 1;
#X obj 780 57 tgl 75 0 empty Rdsk1Tie TIE 22 37 0 15 -262144 -262144
-1 0 1;
#X obj 874 57 tgl 75 0 empty Rdsk2Tie TIE 22 37 0 15 -262144 -262144
-1 0 1;
#X obj 874 242 bng 75 250 50 0 empty empty AUTO 18 35 0 15 -4032 -1
-1;
#X obj 1065 197 sel 0;
#X obj 1083 308 s Rdsk1Tie;
#X msg 1140 235 color 225 225 22;
#X msg 1091 271 color 0 0 22;
#X obj 1126 58 sel 0;
#X msg 1201 96 color 225 225 22;
#X msg 1152 132 color 0 0 22;
#X obj 1144 169 s Rdsk2Tie;
#X obj 1083 363 sel 0;
#X msg 1109 437 color 0 0 22;
#X obj 1101 474 s Rdsk1Air;
#X msg 1158 401 color 133 133 22;
#X obj 1302 487 sel 0;
#X msg 1328 561 color 0 0 22;
#X msg 1377 525 color 133 133 22;
#X obj 1320 598 s Rdsk2Air;
#X obj 1032 534 spigot;
#X obj 1065 513 tgl 15 0 empty empty empty 17 7 0 10 -262144 -1 -1
1 1;
#X obj 1398 449 spigot;
#X obj 1431 428 tgl 15 0 empty empty empty 17 7 0 10 -262144 -1 -1
1 1;
#X obj 1037 564 spigot;
#X msg 1029 444 0;
#X msg 1032 396 1;
#X obj 1016 363 t b b b b;
#X obj 1393 342 t b b b b;
#X msg 1312 426 0;
#X msg 1315 378 1;
#X obj 1399 477 spigot;
#X obj 1400 256 spigot;
#X obj 1433 235 tgl 15 0 empty empty empty 17 7 0 10 -262144 -1 -1
1 1;
#X obj 1405 286 spigot;
#X msg 1397 166 0;
#X msg 1400 118 1;
#X msg 1353 191 0;
#X obj 1384 85 t b b b;
#X obj 1389 809 spigot;
#X obj 1422 788 tgl 15 0 empty empty empty 17 7 0 10 -262144 -1 -1
1 1;
#X obj 1394 839 spigot;
#X msg 1386 719 0;
#X msg 1389 671 1;
#X msg 1335 672 0;
#X obj 1373 638 t b b b;
#X obj 956 556 tgl 50 0 keysHab empty empty 17 7 0 10 -262144 -1 -1
0 1;
#X obj 53 531 tgl 40 0 empty Raudio1 1 15 20 0 15 -258699 -258699 -1
0 1;
#X obj 103 531 tgl 40 0 empty Raudio2 2 15 20 0 15 -258699 -258699
-1 0 1;
#X obj 153 531 tgl 40 0 empty Raudio3 3 15 20 0 15 -258699 -258699
-1 0 1;
#X obj 203 531 tgl 40 0 empty Raudio4 4 15 20 0 15 -258699 -258699
-1 0 1;
#X obj 253 531 tgl 40 0 empty Raudio5 5 15 20 0 15 -258699 -258699
-1 0 1;
#X obj 303 531 tgl 40 0 empty Raudio6 6 15 20 0 15 -258699 -258699
-1 0 1;
#X obj 75 1096 sel 0;
#X obj 40 1203 s Raudio1;
#X msg 48 1166 color 133 133 22;
#X msg 97 1131 color 106 106 22;
#X obj 52 1248 sel 0;
#X msg 29 1321 color 133 133 22;
#X msg 78 1286 color 106 106 22;
#X obj 21 1358 s Raudio2;
#X obj 207 1250 sel 0;
#X msg 205 1322 color 133 133 22;
#X msg 254 1287 color 106 106 22;
#X obj 197 1359 s Raudio3;
#X obj 385 1256 sel 0;
#X msg 374 1321 color 133 133 22;
#X msg 423 1286 color 106 106 22;
#X obj 366 1358 s Raudio4;
#X obj 550 1260 sel 0;
#X msg 543 1321 color 133 133 22;
#X msg 592 1286 color 106 106 22;
#X obj 535 1358 s Raudio5;
#X obj 712 1256 sel 0;
#X msg 705 1322 color 133 133 22;
#X msg 754 1287 color 106 106 22;
#X obj 697 1359 s Raudio6;
#X obj 452 671 delay 200;
#X msg 399 684 0;
#X obj 1122 1216 shell;
#X msg 1109 1153 gravar-atem-pd.sh \$1 \$2;
#X obj 1090 1097 pack s s;
#X msg 1026 1033 nomeDoArquivo.ts;
#X msg 1237 1071 /pasta/onde/vai;
#X obj 1079 1271 print ECHO;
#X connect 0 0 7 0;
#X connect 0 0 100 0;
#X connect 1 0 8 0;
#X connect 1 0 101 0;
#X connect 2 0 11 0;
#X connect 2 0 102 0;
#X connect 3 0 12 0;
#X connect 3 0 103 0;
#X connect 4 0 20 0;
#X connect 4 0 94 0;
#X connect 6 0 5 0;
#X connect 7 0 5 0;
#X connect 8 0 5 0;
#X connect 9 0 13 0;
#X connect 9 0 104 0;
#X connect 10 0 14 0;
#X connect 10 0 105 0;
#X connect 11 0 5 0;
#X connect 12 0 5 0;
#X connect 13 0 5 0;
#X connect 14 0 5 0;
#X connect 15 0 21 0;
#X connect 15 0 95 0;
#X connect 16 0 22 0;
#X connect 16 0 96 0;
#X connect 17 0 23 0;
#X connect 17 0 97 0;
#X connect 18 0 24 0;
#X connect 18 0 98 0;
#X connect 19 0 25 0;
#X connect 19 0 99 0;
#X connect 20 0 5 0;
#X connect 21 0 5 0;
#X connect 22 0 5 0;
#X connect 23 0 5 0;
#X connect 24 0 5 0;
#X connect 25 0 5 0;
#X connect 26 0 6 0;
#X connect 26 0 205 0;
#X connect 28 0 50 0;
#X connect 29 0 51 0;
#X connect 30 0 52 0;
#X connect 31 0 53 0;
#X connect 32 0 54 0;
#X connect 33 0 55 0;
#X connect 34 0 56 0;
#X connect 37 0 57 0;
#X connect 38 0 58 0;
#X connect 39 0 59 0;
#X connect 40 0 60 0;
#X connect 41 0 61 0;
#X connect 42 0 62 0;
#X connect 43 0 63 0;
#X connect 50 0 64 0;
#X connect 51 0 64 0;
#X connect 52 0 64 0;
#X connect 53 0 64 0;
#X connect 54 0 64 0;
#X connect 55 0 64 0;
#X connect 56 0 64 0;
#X connect 57 0 64 0;
#X connect 58 0 64 0;
#X connect 59 0 64 0;
#X connect 60 0 64 0;
#X connect 61 0 64 0;
#X connect 62 0 64 0;
#X connect 63 0 64 0;
#X connect 64 0 5 0;
#X connect 65 0 67 0;
#X connect 65 0 108 0;
#X connect 66 0 68 0;
#X connect 66 0 107 0;
#X connect 67 0 64 0;
#X connect 68 0 64 0;
#X connect 69 0 85 0;
#X connect 70 0 86 0;
#X connect 71 0 83 0;
#X connect 72 0 84 0;
#X connect 73 0 81 0;
#X connect 74 0 82 0;
#X connect 81 0 64 0;
#X connect 82 0 64 0;
#X connect 83 0 64 0;
#X connect 84 0 64 0;
#X connect 85 0 64 0;
#X connect 86 0 64 0;
#X connect 109 0 4 0;
#X connect 110 0 15 0;
#X connect 111 0 16 0;
#X connect 112 0 17 0;
#X connect 113 0 18 0;
#X connect 114 0 19 0;
#X connect 115 0 0 0;
#X connect 116 0 1 0;
#X connect 117 0 2 0;
#X connect 118 0 3 0;
#X connect 119 0 9 0;
#X connect 120 0 10 0;
#X connect 122 0 66 0;
#X connect 124 0 65 0;
#X connect 126 0 155 0;
#X connect 127 0 140 0;
#X connect 128 0 144 0;
#X connect 129 0 132 0;
#X connect 130 0 136 0;
#X connect 131 0 156 0;
#X connect 132 0 135 0;
#X connect 132 0 160 0;
#X connect 132 1 134 0;
#X connect 132 1 162 0;
#X connect 134 0 133 0;
#X connect 135 0 133 0;
#X connect 136 0 138 0;
#X connect 136 1 137 0;
#X connect 137 0 139 0;
#X connect 138 0 139 0;
#X connect 140 0 141 0;
#X connect 140 0 148 0;
#X connect 140 1 143 0;
#X connect 140 1 152 0;
#X connect 140 1 166 0;
#X connect 141 0 142 0;
#X connect 143 0 142 0;
#X connect 144 0 145 0;
#X connect 144 0 150 0;
#X connect 144 1 146 0;
#X connect 144 1 159 0;
#X connect 144 1 173 0;
#X connect 145 0 147 0;
#X connect 146 0 147 0;
#X connect 148 0 73 0;
#X connect 149 0 148 1;
#X connect 149 0 152 1;
#X connect 150 0 74 0;
#X connect 151 0 150 1;
#X connect 151 0 159 1;
#X connect 152 0 71 0;
#X connect 153 0 149 0;
#X connect 154 0 149 0;
#X connect 155 0 154 0;
#X connect 155 1 127 0;
#X connect 155 2 153 0;
#X connect 155 3 69 0;
#X connect 156 0 158 0;
#X connect 156 1 128 0;
#X connect 156 2 157 0;
#X connect 156 3 70 0;
#X connect 157 0 151 0;
#X connect 158 0 151 0;
#X connect 159 0 72 0;
#X connect 161 0 160 1;
#X connect 161 0 162 1;
#X connect 163 0 161 0;
#X connect 164 0 161 0;
#X connect 165 0 129 0;
#X connect 166 0 164 0;
#X connect 166 1 165 0;
#X connect 166 2 163 0;
#X connect 168 0 167 1;
#X connect 168 0 169 1;
#X connect 170 0 168 0;
#X connect 171 0 168 0;
#X connect 172 0 130 0;
#X connect 173 0 171 0;
#X connect 173 1 172 0;
#X connect 173 2 170 0;
#X connect 175 0 181 0;
#X connect 176 0 185 0;
#X connect 177 0 189 0;
#X connect 178 0 193 0;
#X connect 179 0 197 0;
#X connect 180 0 201 0;
#X connect 181 0 37 0;
#X connect 181 0 183 0;
#X connect 181 1 28 0;
#X connect 181 1 184 0;
#X connect 183 0 182 0;
#X connect 184 0 182 0;
#X connect 185 0 186 0;
#X connect 185 0 38 0;
#X connect 185 1 187 0;
#X connect 185 1 29 0;
#X connect 186 0 188 0;
#X connect 187 0 188 0;
#X connect 189 0 190 0;
#X connect 189 0 39 0;
#X connect 189 1 191 0;
#X connect 189 1 30 0;
#X connect 190 0 192 0;
#X connect 191 0 192 0;
#X connect 193 0 194 0;
#X connect 193 0 40 0;
#X connect 193 1 195 0;
#X connect 193 1 31 0;
#X connect 194 0 196 0;
#X connect 195 0 196 0;
#X connect 197 0 198 0;
#X connect 197 0 41 0;
#X connect 197 1 199 0;
#X connect 197 1 32 0;
#X connect 198 0 200 0;
#X connect 199 0 200 0;
#X connect 201 0 202 0;
#X connect 201 0 42 0;
#X connect 201 1 203 0;
#X connect 201 1 33 0;
#X connect 202 0 204 0;
#X connect 203 0 204 0;
#X connect 205 0 206 0;
#X connect 205 0 115 0;
#X connect 205 0 110 0;
#X connect 206 0 180 0;
#X connect 206 0 179 0;
#X connect 206 0 178 0;
#X connect 206 0 177 0;
#X connect 206 0 176 0;
#X connect 206 0 175 0;
#X connect 207 0 212 0;
#X connect 208 0 207 0;
#X connect 209 0 208 0;
#X connect 210 0 209 0;
#X connect 211 0 209 1;
#X coords 0 -1 1 1 1000 600 1 10 10;
#X restore 3 4 pd mesa-de-corte;
